<svg width="45" height="50" viewBox="0 0 45 50" fill="none" xmlns="http://www.w3.org/2000/svg">
<path d="M34.8125 19.3982V14.7557H43.0231V5.61422H34.8125V0H25.5658V19.3982C25.5658 20.4833 25.6569 21.5467 25.8295 22.5832C22.7544 15.9379 16.0033 11.3245 8.1682 11.3245H0V28.6379H8.1682V20.5016C13.7985 20.5016 18.3796 25.0599 18.3796 30.6623C18.3796 36.2646 13.7985 40.8229 8.1682 40.8229V50C18.9014 50 27.6024 41.3422 27.6024 30.6623C27.6024 29.5772 27.5113 28.5137 27.3387 27.4773C30.4138 34.1226 37.1649 38.7359 45 38.7359V29.5589C39.3697 29.5589 34.8125 25.0005 34.8125 19.3982Z" fill="#DD1C4A"/>
</svg>
